<mxfile host="Electron" agent="Mozilla/5.0 (Windows NT 10.0; Win64; x64) AppleWebKit/537.36 (KHTML, like Gecko) draw.io/24.7.17 Chrome/128.0.6613.36 Electron/32.0.1 Safari/537.36" version="24.7.17">
  <diagram name="Page-1" id="8CCe6OCv-EtFc_HfqUoe">
    <mxGraphModel dx="1332" dy="1382" grid="1" gridSize="10" guides="1" tooltips="1" connect="1" arrows="1" fold="1" page="1" pageScale="1" pageWidth="850" pageHeight="1100" math="0" shadow="0">
      <root>
        <mxCell id="0" />
        <mxCell id="1" parent="0" />
        <mxCell id="4qzTmG3llHrawzFMcoOG-89" value="" style="rounded=1;whiteSpace=wrap;html=1;fillColor=none;dashed=1;" parent="1" vertex="1">
          <mxGeometry x="-80" y="390" width="490" height="200" as="geometry" />
        </mxCell>
        <mxCell id="4qzTmG3llHrawzFMcoOG-74" value="" style="rounded=1;whiteSpace=wrap;html=1;fillColor=none;dashed=1;" parent="1" vertex="1">
          <mxGeometry x="-80" y="180" width="490" height="200" as="geometry" />
        </mxCell>
        <mxCell id="4qzTmG3llHrawzFMcoOG-75" value="0dB" style="text;html=1;align=left;verticalAlign=middle;whiteSpace=wrap;rounded=0;" parent="1" vertex="1">
          <mxGeometry x="-50" y="180" width="430" height="30" as="geometry" />
        </mxCell>
        <mxCell id="4qzTmG3llHrawzFMcoOG-91" value="" style="rounded=1;whiteSpace=wrap;html=1;fillColor=default;absoluteArcSize=1;arcSize=36;" parent="1" vertex="1">
          <mxGeometry y="662" width="330" height="36" as="geometry" />
        </mxCell>
        <mxCell id="4qzTmG3llHrawzFMcoOG-94" value="" style="rounded=1;whiteSpace=wrap;html=1;fillColor=none;dashed=1;" parent="1" vertex="1">
          <mxGeometry x="-80" y="600" width="490" height="200" as="geometry" />
        </mxCell>
        <mxCell id="4qzTmG3llHrawzFMcoOG-105" value="12.0dB" style="text;html=1;align=left;verticalAlign=middle;whiteSpace=wrap;rounded=0;" parent="1" vertex="1">
          <mxGeometry x="-50" y="600" width="430" height="30" as="geometry" />
        </mxCell>
        <mxCell id="4qzTmG3llHrawzFMcoOG-95" value="" style="rounded=0;whiteSpace=wrap;html=1;dashed=1;fillColor=none;" parent="1" vertex="1">
          <mxGeometry y="640" width="330" height="80" as="geometry" />
        </mxCell>
        <mxCell id="4qzTmG3llHrawzFMcoOG-101" value="" style="endArrow=none;html=1;rounded=0;" parent="1" edge="1">
          <mxGeometry width="50" height="50" relative="1" as="geometry">
            <mxPoint x="312" y="675" as="sourcePoint" />
            <mxPoint x="312" y="685" as="targetPoint" />
          </mxGeometry>
        </mxCell>
        <mxCell id="4qzTmG3llHrawzFMcoOG-102" value="" style="endArrow=none;html=1;rounded=0;" parent="1" edge="1">
          <mxGeometry width="50" height="50" relative="1" as="geometry">
            <mxPoint x="307" y="680" as="sourcePoint" />
            <mxPoint x="317" y="680" as="targetPoint" />
          </mxGeometry>
        </mxCell>
        <mxCell id="4qzTmG3llHrawzFMcoOG-77" value="" style="rounded=1;whiteSpace=wrap;html=1;fillColor=default;absoluteArcSize=1;arcSize=36;" parent="1" vertex="1">
          <mxGeometry y="452" width="330" height="36" as="geometry" />
        </mxCell>
        <mxCell id="4qzTmG3llHrawzFMcoOG-87" value="" style="endArrow=none;html=1;rounded=0;" parent="1" edge="1">
          <mxGeometry width="50" height="50" relative="1" as="geometry">
            <mxPoint x="18" y="465" as="sourcePoint" />
            <mxPoint x="18" y="475" as="targetPoint" />
          </mxGeometry>
        </mxCell>
        <mxCell id="4qzTmG3llHrawzFMcoOG-88" value="" style="endArrow=none;html=1;rounded=0;" parent="1" edge="1">
          <mxGeometry width="50" height="50" relative="1" as="geometry">
            <mxPoint x="13" y="469.95" as="sourcePoint" />
            <mxPoint x="23" y="469.95" as="targetPoint" />
          </mxGeometry>
        </mxCell>
        <mxCell id="4qzTmG3llHrawzFMcoOG-72" value="" style="rounded=1;whiteSpace=wrap;html=1;fillColor=none;dashed=1;" parent="1" vertex="1">
          <mxGeometry x="-80" y="-30" width="490" height="200" as="geometry" />
        </mxCell>
        <mxCell id="4qzTmG3llHrawzFMcoOG-73" value="Base" style="text;html=1;align=left;verticalAlign=middle;whiteSpace=wrap;rounded=0;" parent="1" vertex="1">
          <mxGeometry x="-50" y="-30" width="430" height="30" as="geometry" />
        </mxCell>
        <mxCell id="4qzTmG3llHrawzFMcoOG-32" value="" style="rounded=0;whiteSpace=wrap;html=1;dashed=1;fillColor=none;" parent="1" vertex="1">
          <mxGeometry y="10" width="330" height="80" as="geometry" />
        </mxCell>
        <mxCell id="4qzTmG3llHrawzFMcoOG-23" value="" style="rounded=1;whiteSpace=wrap;html=1;fillColor=default;absoluteArcSize=1;arcSize=36;" parent="1" vertex="1">
          <mxGeometry y="32" width="330" height="36" as="geometry" />
        </mxCell>
        <mxCell id="4qzTmG3llHrawzFMcoOG-25" value="" style="ellipse;whiteSpace=wrap;html=1;aspect=fixed;fillColor=default;" parent="1" vertex="1">
          <mxGeometry x="196" y="10" width="80" height="80" as="geometry" />
        </mxCell>
        <mxCell id="4qzTmG3llHrawzFMcoOG-33" value="0" style="text;html=1;align=center;verticalAlign=middle;whiteSpace=wrap;rounded=0;fontSize=10;" parent="1" vertex="1">
          <mxGeometry x="-10" width="10" height="10" as="geometry" />
        </mxCell>
        <mxCell id="4qzTmG3llHrawzFMcoOG-34" value="" style="shape=partialRectangle;whiteSpace=wrap;html=1;top=0;bottom=0;fillColor=none;dashed=1;" parent="1" vertex="1">
          <mxGeometry y="90" width="330" height="50" as="geometry" />
        </mxCell>
        <mxCell id="4qzTmG3llHrawzFMcoOG-35" value="165" style="text;html=1;align=center;verticalAlign=middle;whiteSpace=wrap;rounded=0;" parent="1" vertex="1">
          <mxGeometry y="100" width="330" height="30" as="geometry" />
        </mxCell>
        <mxCell id="4qzTmG3llHrawzFMcoOG-36" value="" style="endArrow=classic;startArrow=classic;html=1;rounded=0;exitX=0;exitY=0.75;exitDx=0;exitDy=0;" parent="1" edge="1">
          <mxGeometry width="50" height="50" relative="1" as="geometry">
            <mxPoint y="100" as="sourcePoint" />
            <mxPoint x="330" y="100" as="targetPoint" />
          </mxGeometry>
        </mxCell>
        <mxCell id="4qzTmG3llHrawzFMcoOG-37" value="" style="shape=partialRectangle;whiteSpace=wrap;html=1;top=0;bottom=0;fillColor=none;dashed=1;direction=south;" parent="1" vertex="1">
          <mxGeometry x="330" y="10" width="50" height="80" as="geometry" />
        </mxCell>
        <mxCell id="4qzTmG3llHrawzFMcoOG-38" value="" style="endArrow=classic;startArrow=classic;html=1;rounded=0;" parent="1" edge="1">
          <mxGeometry width="50" height="50" relative="1" as="geometry">
            <mxPoint x="340" y="90" as="sourcePoint" />
            <mxPoint x="340" y="10" as="targetPoint" />
          </mxGeometry>
        </mxCell>
        <mxCell id="4qzTmG3llHrawzFMcoOG-39" value="40" style="text;html=1;align=center;verticalAlign=middle;whiteSpace=wrap;rounded=0;" parent="1" vertex="1">
          <mxGeometry x="340" y="10" width="40" height="80" as="geometry" />
        </mxCell>
        <mxCell id="4qzTmG3llHrawzFMcoOG-42" value="" style="endArrow=none;html=1;rounded=0;" parent="1" edge="1">
          <mxGeometry width="50" height="50" relative="1" as="geometry">
            <mxPoint x="312" y="45" as="sourcePoint" />
            <mxPoint x="312" y="55" as="targetPoint" />
          </mxGeometry>
        </mxCell>
        <mxCell id="4qzTmG3llHrawzFMcoOG-43" value="" style="endArrow=none;html=1;rounded=0;" parent="1" edge="1">
          <mxGeometry width="50" height="50" relative="1" as="geometry">
            <mxPoint x="307" y="50" as="sourcePoint" />
            <mxPoint x="317" y="50" as="targetPoint" />
          </mxGeometry>
        </mxCell>
        <mxCell id="4qzTmG3llHrawzFMcoOG-46" value="" style="endArrow=none;html=1;rounded=0;" parent="1" edge="1">
          <mxGeometry width="50" height="50" relative="1" as="geometry">
            <mxPoint x="235.95" y="45" as="sourcePoint" />
            <mxPoint x="235.95" y="55" as="targetPoint" />
          </mxGeometry>
        </mxCell>
        <mxCell id="4qzTmG3llHrawzFMcoOG-47" value="" style="endArrow=none;html=1;rounded=0;" parent="1" edge="1">
          <mxGeometry width="50" height="50" relative="1" as="geometry">
            <mxPoint x="231" y="49.95" as="sourcePoint" />
            <mxPoint x="241" y="49.95" as="targetPoint" />
          </mxGeometry>
        </mxCell>
        <mxCell id="4qzTmG3llHrawzFMcoOG-48" value="36" style="text;html=1;align=center;verticalAlign=middle;whiteSpace=wrap;rounded=0;" parent="1" vertex="1">
          <mxGeometry x="-50" y="32" width="40" height="36" as="geometry" />
        </mxCell>
        <mxCell id="4qzTmG3llHrawzFMcoOG-49" value="" style="shape=partialRectangle;whiteSpace=wrap;html=1;top=0;bottom=0;fillColor=none;dashed=1;direction=south;" parent="1" vertex="1">
          <mxGeometry x="-50" y="32" width="67" height="36" as="geometry" />
        </mxCell>
        <mxCell id="4qzTmG3llHrawzFMcoOG-50" value="" style="endArrow=classic;startArrow=classic;html=1;rounded=0;" parent="1" edge="1">
          <mxGeometry width="50" height="50" relative="1" as="geometry">
            <mxPoint x="-10.08" y="68" as="sourcePoint" />
            <mxPoint x="-10.08" y="32" as="targetPoint" />
          </mxGeometry>
        </mxCell>
        <mxCell id="4qzTmG3llHrawzFMcoOG-51" value="" style="endArrow=none;html=1;rounded=0;" parent="1" edge="1">
          <mxGeometry width="50" height="50" relative="1" as="geometry">
            <mxPoint x="18" y="45" as="sourcePoint" />
            <mxPoint x="18" y="55" as="targetPoint" />
          </mxGeometry>
        </mxCell>
        <mxCell id="4qzTmG3llHrawzFMcoOG-52" value="" style="endArrow=none;html=1;rounded=0;" parent="1" edge="1">
          <mxGeometry width="50" height="50" relative="1" as="geometry">
            <mxPoint x="13" y="49.95" as="sourcePoint" />
            <mxPoint x="23" y="49.95" as="targetPoint" />
          </mxGeometry>
        </mxCell>
        <mxCell id="4qzTmG3llHrawzFMcoOG-53" value="" style="rounded=0;whiteSpace=wrap;html=1;dashed=1;fillColor=none;" parent="1" vertex="1">
          <mxGeometry y="220" width="330" height="80" as="geometry" />
        </mxCell>
        <mxCell id="4qzTmG3llHrawzFMcoOG-54" value="" style="rounded=1;whiteSpace=wrap;html=1;fillColor=default;absoluteArcSize=1;arcSize=36;" parent="1" vertex="1">
          <mxGeometry y="242" width="330" height="36" as="geometry" />
        </mxCell>
        <mxCell id="4qzTmG3llHrawzFMcoOG-55" value="" style="ellipse;whiteSpace=wrap;html=1;aspect=fixed;fillColor=default;" parent="1" vertex="1">
          <mxGeometry x="196" y="220" width="80" height="80" as="geometry" />
        </mxCell>
        <mxCell id="4qzTmG3llHrawzFMcoOG-56" value="0" style="text;html=1;align=center;verticalAlign=middle;whiteSpace=wrap;rounded=0;fontSize=10;" parent="1" vertex="1">
          <mxGeometry x="-10" y="210" width="10" height="10" as="geometry" />
        </mxCell>
        <mxCell id="4qzTmG3llHrawzFMcoOG-57" value="" style="shape=partialRectangle;whiteSpace=wrap;html=1;top=0;bottom=0;fillColor=none;dashed=1;" parent="1" vertex="1">
          <mxGeometry y="260" width="236" height="90" as="geometry" />
        </mxCell>
        <mxCell id="4qzTmG3llHrawzFMcoOG-58" value="118" style="text;html=1;align=center;verticalAlign=middle;whiteSpace=wrap;rounded=0;" parent="1" vertex="1">
          <mxGeometry y="310" width="236" height="30" as="geometry" />
        </mxCell>
        <mxCell id="4qzTmG3llHrawzFMcoOG-59" value="" style="endArrow=classic;startArrow=classic;html=1;rounded=0;exitX=0;exitY=0.75;exitDx=0;exitDy=0;" parent="1" edge="1">
          <mxGeometry width="50" height="50" relative="1" as="geometry">
            <mxPoint y="310" as="sourcePoint" />
            <mxPoint x="236" y="310" as="targetPoint" />
          </mxGeometry>
        </mxCell>
        <mxCell id="4qzTmG3llHrawzFMcoOG-63" value="" style="endArrow=none;html=1;rounded=0;" parent="1" edge="1">
          <mxGeometry width="50" height="50" relative="1" as="geometry">
            <mxPoint x="312" y="255" as="sourcePoint" />
            <mxPoint x="312" y="265" as="targetPoint" />
          </mxGeometry>
        </mxCell>
        <mxCell id="4qzTmG3llHrawzFMcoOG-64" value="" style="endArrow=none;html=1;rounded=0;" parent="1" edge="1">
          <mxGeometry width="50" height="50" relative="1" as="geometry">
            <mxPoint x="307" y="260" as="sourcePoint" />
            <mxPoint x="317" y="260" as="targetPoint" />
          </mxGeometry>
        </mxCell>
        <mxCell id="4qzTmG3llHrawzFMcoOG-65" value="" style="endArrow=none;html=1;rounded=0;" parent="1" edge="1">
          <mxGeometry width="50" height="50" relative="1" as="geometry">
            <mxPoint x="235.95" y="255" as="sourcePoint" />
            <mxPoint x="235.95" y="265" as="targetPoint" />
          </mxGeometry>
        </mxCell>
        <mxCell id="4qzTmG3llHrawzFMcoOG-66" value="" style="endArrow=none;html=1;rounded=0;" parent="1" edge="1">
          <mxGeometry width="50" height="50" relative="1" as="geometry">
            <mxPoint x="231" y="259.95" as="sourcePoint" />
            <mxPoint x="241" y="259.95" as="targetPoint" />
          </mxGeometry>
        </mxCell>
        <mxCell id="4qzTmG3llHrawzFMcoOG-70" value="" style="endArrow=none;html=1;rounded=0;" parent="1" edge="1">
          <mxGeometry width="50" height="50" relative="1" as="geometry">
            <mxPoint x="18" y="255" as="sourcePoint" />
            <mxPoint x="18" y="265" as="targetPoint" />
          </mxGeometry>
        </mxCell>
        <mxCell id="4qzTmG3llHrawzFMcoOG-71" value="" style="endArrow=none;html=1;rounded=0;" parent="1" edge="1">
          <mxGeometry width="50" height="50" relative="1" as="geometry">
            <mxPoint x="13" y="259.95" as="sourcePoint" />
            <mxPoint x="23" y="259.95" as="targetPoint" />
          </mxGeometry>
        </mxCell>
        <mxCell id="4qzTmG3llHrawzFMcoOG-76" value="" style="rounded=0;whiteSpace=wrap;html=1;dashed=1;fillColor=none;" parent="1" vertex="1">
          <mxGeometry y="430" width="330" height="80" as="geometry" />
        </mxCell>
        <mxCell id="4qzTmG3llHrawzFMcoOG-78" value="" style="ellipse;whiteSpace=wrap;html=1;aspect=fixed;fillColor=default;" parent="1" vertex="1">
          <mxGeometry x="16" y="430" width="80" height="80" as="geometry" />
        </mxCell>
        <mxCell id="4qzTmG3llHrawzFMcoOG-79" value="0" style="text;html=1;align=center;verticalAlign=middle;whiteSpace=wrap;rounded=0;fontSize=10;" parent="1" vertex="1">
          <mxGeometry x="-10" y="420" width="10" height="10" as="geometry" />
        </mxCell>
        <mxCell id="4qzTmG3llHrawzFMcoOG-80" value="" style="shape=partialRectangle;whiteSpace=wrap;html=1;top=0;bottom=0;fillColor=none;dashed=1;" parent="1" vertex="1">
          <mxGeometry y="470" width="56" height="90" as="geometry" />
        </mxCell>
        <mxCell id="4qzTmG3llHrawzFMcoOG-81" value="28" style="text;html=1;align=center;verticalAlign=middle;whiteSpace=wrap;rounded=0;" parent="1" vertex="1">
          <mxGeometry y="520" width="56" height="30" as="geometry" />
        </mxCell>
        <mxCell id="4qzTmG3llHrawzFMcoOG-82" value="" style="endArrow=classic;startArrow=classic;html=1;rounded=0;exitX=0;exitY=0.75;exitDx=0;exitDy=0;" parent="1" edge="1">
          <mxGeometry width="50" height="50" relative="1" as="geometry">
            <mxPoint y="520" as="sourcePoint" />
            <mxPoint x="56" y="520" as="targetPoint" />
          </mxGeometry>
        </mxCell>
        <mxCell id="4qzTmG3llHrawzFMcoOG-83" value="" style="endArrow=none;html=1;rounded=0;" parent="1" edge="1">
          <mxGeometry width="50" height="50" relative="1" as="geometry">
            <mxPoint x="312" y="465" as="sourcePoint" />
            <mxPoint x="312" y="475" as="targetPoint" />
          </mxGeometry>
        </mxCell>
        <mxCell id="4qzTmG3llHrawzFMcoOG-84" value="" style="endArrow=none;html=1;rounded=0;" parent="1" edge="1">
          <mxGeometry width="50" height="50" relative="1" as="geometry">
            <mxPoint x="307" y="470" as="sourcePoint" />
            <mxPoint x="317" y="470" as="targetPoint" />
          </mxGeometry>
        </mxCell>
        <mxCell id="4qzTmG3llHrawzFMcoOG-85" value="" style="endArrow=none;html=1;rounded=0;" parent="1" edge="1">
          <mxGeometry width="50" height="50" relative="1" as="geometry">
            <mxPoint x="55.94999999999999" y="465" as="sourcePoint" />
            <mxPoint x="55.94999999999999" y="475" as="targetPoint" />
          </mxGeometry>
        </mxCell>
        <mxCell id="4qzTmG3llHrawzFMcoOG-86" value="" style="endArrow=none;html=1;rounded=0;" parent="1" edge="1">
          <mxGeometry width="50" height="50" relative="1" as="geometry">
            <mxPoint x="51" y="469.95" as="sourcePoint" />
            <mxPoint x="61" y="469.95" as="targetPoint" />
          </mxGeometry>
        </mxCell>
        <mxCell id="4qzTmG3llHrawzFMcoOG-90" value="-60.0dB" style="text;html=1;align=left;verticalAlign=middle;whiteSpace=wrap;rounded=0;" parent="1" vertex="1">
          <mxGeometry x="-50" y="390" width="430" height="30" as="geometry" />
        </mxCell>
        <mxCell id="4qzTmG3llHrawzFMcoOG-92" value="" style="endArrow=none;html=1;rounded=0;" parent="1" edge="1">
          <mxGeometry width="50" height="50" relative="1" as="geometry">
            <mxPoint x="18" y="675" as="sourcePoint" />
            <mxPoint x="18" y="685" as="targetPoint" />
          </mxGeometry>
        </mxCell>
        <mxCell id="4qzTmG3llHrawzFMcoOG-93" value="" style="endArrow=none;html=1;rounded=0;" parent="1" edge="1">
          <mxGeometry width="50" height="50" relative="1" as="geometry">
            <mxPoint x="13" y="679.95" as="sourcePoint" />
            <mxPoint x="23" y="679.95" as="targetPoint" />
          </mxGeometry>
        </mxCell>
        <mxCell id="4qzTmG3llHrawzFMcoOG-96" value="" style="ellipse;whiteSpace=wrap;html=1;aspect=fixed;fillColor=default;" parent="1" vertex="1">
          <mxGeometry x="234" y="640" width="80" height="80" as="geometry" />
        </mxCell>
        <mxCell id="4qzTmG3llHrawzFMcoOG-97" value="0" style="text;html=1;align=center;verticalAlign=middle;whiteSpace=wrap;rounded=0;fontSize=10;" parent="1" vertex="1">
          <mxGeometry x="-10" y="630" width="10" height="10" as="geometry" />
        </mxCell>
        <mxCell id="4qzTmG3llHrawzFMcoOG-98" value="" style="shape=partialRectangle;whiteSpace=wrap;html=1;top=0;bottom=0;fillColor=none;dashed=1;" parent="1" vertex="1">
          <mxGeometry y="680" width="274" height="90" as="geometry" />
        </mxCell>
        <mxCell id="4qzTmG3llHrawzFMcoOG-99" value="137" style="text;html=1;align=center;verticalAlign=middle;whiteSpace=wrap;rounded=0;" parent="1" vertex="1">
          <mxGeometry y="730" width="274" height="30" as="geometry" />
        </mxCell>
        <mxCell id="4qzTmG3llHrawzFMcoOG-100" value="" style="endArrow=classic;startArrow=classic;html=1;rounded=0;exitX=0;exitY=0.75;exitDx=0;exitDy=0;" parent="1" edge="1">
          <mxGeometry width="50" height="50" relative="1" as="geometry">
            <mxPoint y="730" as="sourcePoint" />
            <mxPoint x="274" y="730" as="targetPoint" />
          </mxGeometry>
        </mxCell>
        <mxCell id="4qzTmG3llHrawzFMcoOG-103" value="" style="endArrow=none;html=1;rounded=0;" parent="1" edge="1">
          <mxGeometry width="50" height="50" relative="1" as="geometry">
            <mxPoint x="273.95" y="675" as="sourcePoint" />
            <mxPoint x="273.95" y="685" as="targetPoint" />
          </mxGeometry>
        </mxCell>
        <mxCell id="4qzTmG3llHrawzFMcoOG-104" value="" style="endArrow=none;html=1;rounded=0;" parent="1" edge="1">
          <mxGeometry width="50" height="50" relative="1" as="geometry">
            <mxPoint x="269" y="679.95" as="sourcePoint" />
            <mxPoint x="279" y="679.95" as="targetPoint" />
          </mxGeometry>
        </mxCell>
      </root>
    </mxGraphModel>
  </diagram>
</mxfile>
